<?xml version="1.0" encoding="UTF-8"?>
<!DOCTYPE svg PUBLIC "-//W3C//DTD SVG 1.1//EN" "http://www.w3.org/Graphics/SVG/1.1/DTD/svg11.dtd">
<!-- Creator: CorelDRAW X7 -->
<svg xmlns="http://www.w3.org/2000/svg" xml:space="preserve" width="184.073mm" height="40.5237mm" version="1.1" style="shape-rendering:geometricPrecision; text-rendering:geometricPrecision; image-rendering:optimizeQuality; fill-rule:evenodd; clip-rule:evenodd"
viewBox="0 0 12963 2854"
 xmlns:xlink="http://www.w3.org/1999/xlink">
 <defs>
  <style type="text/css">
   <![CDATA[
    .fil3 {fill:#9D9E9E}
    .fil4 {fill:#AF212E}
    .fil1 {fill:#D31F34;fill-rule:nonzero}
    .fil0 {fill:#B0212E;fill-rule:nonzero}
    .fil2 {fill:#8D2227;fill-rule:nonzero}
   ]]>
  </style>
 </defs>
 <g id="Layer_x0020_1">
  <metadata id="CorelCorpID_0Corel-Layer"/>
  <g id="_1338184167088">
   <g>
    <path class="fil0" d="M756 1678c0,-1 0,-2 1,-3 -1,-1 -1,-3 -1,-4 0,-177 95,-302 202,-413l-958 966 535 553 552 -556c-145,-150 -331,-295 -331,-543z"/>
    <path class="fil0" d="M1087 1128c145,150 330,295 330,543 0,1 0,3 0,4 0,1 0,2 0,3 0,174 -90,297 -195,406l952 -958 -535 -554 -602 606c17,-16 34,-33 50,-50z"/>
    <path class="fil0" d="M1110 2198l8 -9c-3,3 -5,6 -8,9z"/>
    <path class="fil0" d="M1087 2221c7,-8 15,-15 23,-23l-23 23c0,0 0,0 0,0z"/>
    <path class="fil0" d="M958 1258l79 -80c-26,26 -53,53 -79,80z"/>
    <path class="fil0" d="M1222 2084l-104 105c35,-34 70,-69 104,-105z"/>
   </g>
   <polygon class="fil1" points="0,2224 0,1126 1087,0 1639,572 "/>
   <polygon class="fil1" points="535,2777 2174,1126 2174,2223 1639,2777 "/>
   <polygon class="fil2" points="553,1667 111,2339 0,2224 "/>
   <path class="fil2" d="M1087 1128c36,37 74,74 112,112l440 -668 -552 556z"/>
   <g>
    <path class="fil0" d="M2740 2229l0 -1109 389 0c147,0 296,77 296,224l0 659c0,155 -159,226 -306,226l-379 0zm379 -113l0 0c77,0 169,-27 189,-86 8,-29 6,-401 5,-580 0,-45 0,-82 0,-106 0,-77 -110,-113 -185,-113l-276 0 0 885 267 0z"/>
    <path class="fil0" d="M3852 2236c-26,0 -52,-2 -79,-6 -140,-24 -227,-108 -227,-218l0 -355c0,-99 70,-177 187,-208 37,-11 75,-16 117,-16 42,0 81,5 116,16 117,31 187,109 187,208l0 355c0,94 -59,166 -166,203 -42,14 -88,21 -135,21zm-2 -692l0 0c-29,0 -59,4 -88,11 -39,11 -105,39 -105,102l0 355c0,65 72,100 134,111 20,3 39,4 59,4 36,0 70,-5 101,-16 28,-9 91,-38 91,-99l0 -355c0,-65 -73,-93 -105,-102 -29,-7 -59,-11 -87,-11z"/>
    <path class="fil0" d="M4578 2232c-167,0 -263,-84 -263,-230l0 -457 -132 0 0 -103 132 0 0 -323 111 0 0 323 182 0 0 103 -17 0c-57,0 -110,0 -165,1l0 454c0,103 60,123 179,127l17 1 0 103 -16 1c-9,0 -19,0 -28,0z"/>
    <path class="fil0" d="M5207 2229l0 -566c0,-79 -98,-122 -191,-122 -96,0 -193,41 -193,134l0 554 -112 0 0 -788 112 0 0 49c49,-39 115,-59 191,-59l5 0c149,0 300,72 300,234l0 564 -112 0z"/>
    <path class="fil0" d="M5742 2238c-152,0 -305,-72 -305,-233l0 -561 111 0 0 561c0,80 99,124 193,124 92,0 192,-43 192,-135l0 -550 111 0 0 785 -111 0 0 -50c-48,38 -111,57 -191,59l0 0 0 0z"/>
    <path class="fil0" d="M6449 2236l-211 -201c-56,-54 -65,-87 -65,-142l0 -449 112 0 0 449c0,28 2,36 20,53l167 158 166 -158c19,-18 22,-25 22,-53l0 -449 111 0 0 449c0,55 -10,88 -65,142l-212 201 -45 0z"/>
    <path class="fil0" d="M7143 2249c-35,0 -74,-6 -116,-16 -102,-28 -172,-103 -188,-201 -15,-96 25,-188 106,-241 61,-41 147,-63 250,-63 45,0 92,4 141,13l0 -78c0,-22 -5,-39 -15,-53 -28,-39 -80,-56 -119,-64 -17,-3 -35,-4 -53,-4 -18,0 -38,1 -62,5 -60,10 -104,34 -129,72l-10 14 -94 -60 9 -14c47,-75 155,-122 282,-122 118,0 217,40 266,107 24,35 35,75 35,125l0 403c0,38 18,55 58,55l17 0 0 102 -15 1c-7,1 -14,1 -20,1 -56,0 -98,-18 -123,-53 -57,48 -129,71 -220,71zm53 -420l0 0c-77,0 -140,15 -183,46 -47,33 -72,89 -63,142 9,53 48,93 107,109 24,7 53,10 86,10 77,0 193,-29 193,-111l0 -180c-46,-11 -94,-16 -140,-16z"/>
   </g>
   <g>
    <path class="fil0" d="M8481 2244l1 -786 271 0c49,0 96,12 132,34 45,26 70,66 71,116l0 127c-1,44 -21,81 -57,107 1,1 3,2 4,2 50,30 77,75 77,129l0 103c0,55 -27,100 -78,130 -39,24 -93,38 -149,38l-272 0zm272 -79l0 0c41,0 81,-9 109,-26 27,-16 41,-37 41,-62l0 -104c0,-25 -14,-46 -41,-62 -27,-17 -65,-26 -108,-26l-195 0 0 280 194 0zm-2 -359l0 0c39,0 71,-7 94,-22 22,-12 33,-30 33,-52l0 -124c0,-27 -21,-42 -32,-49 -25,-14 -58,-22 -93,-22l-194 0 0 269 192 0z"/>
    <path class="fil0" d="M9513 2244l0 -298 -329 0 0 298 -78 0 0 -634c0,-51 26,-95 73,-123 40,-24 102,-37 170,-37 67,0 129,13 168,37 43,26 69,65 73,111l0 0 1 12 0 634 -78 0zm0 -377l0 0 0 -257c0,-30 -23,-48 -37,-57 -27,-16 -74,-26 -127,-26 -54,0 -102,10 -129,26 -16,10 -36,28 -36,57l0 257 329 0z"/>
    <path class="fil0" d="M9960 2244c-137,0 -219,-66 -219,-175l0 -611 80 0 0 611c0,70 75,95 139,95l169 0 0 80 -169 0z"/>
    <polygon class="fil0" points="10274,2246 10274,1530 10068,1530 10068,1458 10561,1458 10561,1530 10354,1530 10353,2246 "/>
    <polygon class="fil0" points="10679,2244 10679,1457 10758,1457 10758,2244 "/>
    <path class="fil0" d="M11147 2249c-41,0 -79,-5 -108,-12 -84,-22 -135,-77 -136,-148l0 -477c1,-78 60,-135 157,-153 26,-5 56,-8 87,-8 47,0 90,6 122,17 77,26 119,77 119,144l0 12 -78 0 0 -12c0,-42 -40,-62 -65,-70 -24,-9 -59,-13 -96,-13 -26,0 -53,2 -75,6 -21,5 -92,23 -92,77l0 477c0,47 54,66 78,72 23,6 54,10 87,10 34,0 66,-4 90,-11 22,-6 73,-25 73,-71l0 -12 78 -1 0 12c0,70 -47,124 -129,148 -30,8 -70,13 -112,13z"/>
   </g>
   <polygon class="fil0" points="8023,2543 7944,2543 7944,1154 8023,1154 "/>
  </g>
  <path class="fil3" d="M9135 2719c6,3 11,6 16,8 7,3 14,5 22,7 5,1 11,1 17,1 5,0 11,0 16,-1 5,-1 11,-3 15,-6 6,-3 10,-8 12,-14 1,-5 0,-11 -4,-15 -4,-5 -9,-8 -15,-11 -6,-4 -13,-7 -19,-9 -7,-3 -14,-6 -21,-9 -6,-2 -12,-5 -17,-8 -5,-3 -9,-6 -13,-9 -5,-5 -10,-9 -13,-15 -2,-5 -4,-9 -5,-14 -1,-6 -1,-11 0,-16 0,-6 2,-12 5,-17 3,-7 8,-13 14,-18 5,-3 10,-6 16,-9 7,-3 14,-4 22,-6 6,0 12,-1 18,-1 8,0 15,0 23,1l0 0c6,1 12,2 18,3 6,1 12,2 17,3l0 41c-6,-3 -12,-6 -18,-9 -8,-2 -15,-5 -22,-6 -6,-1 -11,-2 -17,-2 -4,0 -9,0 -14,1 -5,1 -11,4 -15,9 -3,4 -4,10 -2,15 3,6 9,9 14,12 7,4 14,7 22,9 5,2 11,4 16,6 6,3 13,6 19,9 6,3 11,6 16,10 5,3 9,7 13,12 4,5 6,11 8,17 1,5 1,9 1,14 0,5 -1,10 -2,15 -2,6 -5,12 -9,17 -4,5 -9,9 -14,13 -6,4 -12,7 -18,10 -6,2 -12,4 -19,6 -6,1 -13,2 -19,3 -8,0 -15,0 -23,0 -7,0 -14,-1 -22,-2 -5,-1 -10,-3 -16,-5 -4,-1 -8,-3 -12,-5l-19 -52c3,2 7,5 11,7 6,4 11,7 17,10zm1953 24c-3,2 -5,4 -8,6 -4,3 -8,6 -12,8 -4,2 -9,3 -13,4 -5,2 -9,2 -14,3 -3,0 -7,0 -11,0 -4,-1 -8,-1 -11,-2 -4,-1 -9,-2 -12,-3 -4,-1 -7,-3 -10,-5 -4,-2 -7,-4 -10,-7 -3,-2 -5,-5 -8,-7l-1 -2c-3,-3 -5,-6 -7,-10 -2,-3 -3,-6 -4,-9 -1,-3 -2,-6 -3,-9 0,-3 -1,-6 -1,-9 -1,-3 -1,-7 -1,-10l0 -88c0,-2 0,-5 0,-7 0,-2 -1,-4 -1,-7 0,-2 -1,-4 -2,-6 -1,-3 -2,-5 -4,-7 -1,-3 -3,-4 -5,-6l-6 -6 13 0c4,0 8,0 12,0 4,0 9,-1 13,-1 3,0 7,-1 10,-1 3,-1 6,-1 9,-2l4 -1 0 112c0,7 1,14 2,21 1,4 2,8 3,12 1,3 3,6 5,9 2,3 5,5 8,7 3,2 6,4 10,5 3,1 7,1 10,1 3,1 7,1 10,0 4,0 7,0 11,-1 3,-1 6,-2 8,-3 3,-1 6,-3 8,-5 2,-1 4,-3 5,-6 2,-3 4,-7 5,-11 1,-5 2,-9 2,-13 1,-5 1,-9 1,-14l0 -70c0,-2 0,-4 0,-6 0,-2 -1,-3 -1,-4 0,-3 0,-5 -1,-7 -1,-4 -3,-7 -5,-10 -1,-2 -3,-4 -5,-6l-6 -6 12 0c3,0 6,0 9,0 5,0 10,-1 15,-1 3,0 7,-1 10,-1 4,-1 7,-1 10,-2l4 0 0 156c0,2 1,4 1,6 0,1 0,3 0,5 1,3 1,5 2,8 1,3 2,5 4,7 1,3 3,5 5,7l7 5 -12 0c-1,0 -3,0 -4,0 -7,0 -15,1 -22,2 -4,1 -8,1 -12,2 -2,0 -5,1 -8,1l-2 -22 0 0c-2,2 -4,4 -6,6zm88 90c2,-2 3,-4 4,-7 2,-2 2,-4 3,-6 1,-4 1,-7 2,-10 0,-2 0,-4 0,-7l0 -200c0,-1 0,-2 0,-3 0,-3 -1,-5 -1,-8 0,-2 -1,-4 -1,-5 -1,-3 -1,-5 -2,-7 -1,-2 -2,-4 -4,-5 -1,-2 -3,-4 -4,-5l-6 -6 12 0c3,0 6,0 9,0 3,0 6,0 9,0 3,-1 6,-1 9,-1 3,-1 5,-1 8,-2 2,0 5,0 7,-1l4 -1 2 27 0 0c2,-2 4,-4 6,-6 3,-2 6,-4 9,-6 2,-2 5,-4 8,-5 4,-2 7,-4 10,-5 4,-1 7,-2 11,-3 4,-1 8,-2 12,-2 3,-1 7,-1 10,-1 3,0 7,0 10,1 3,0 6,1 9,1 4,1 8,2 12,3 3,1 7,3 11,4 3,2 6,4 10,6 3,2 6,5 9,7 4,4 8,8 12,12 3,4 6,8 9,12 2,4 4,8 6,12 2,4 3,8 4,12 2,5 3,11 3,16 1,5 1,10 1,15 0,4 0,9 -1,13 0,5 -1,10 -2,14 -2,5 -3,10 -5,15 -2,4 -4,8 -6,11 -3,6 -6,11 -10,16 -3,4 -6,7 -10,11 -4,3 -8,6 -12,8 -3,2 -6,4 -9,6 -4,2 -8,4 -13,6 -4,1 -8,2 -12,3 -5,1 -10,2 -15,2 -4,0 -8,0 -12,0l-1 0c-4,0 -8,-1 -11,-1l-1 0c-4,-1 -8,-2 -13,-3l-28 -41 0 84c0,3 0,5 0,7 0,2 0,4 1,6 0,2 1,4 1,6 1,2 2,4 3,6 1,1 2,3 3,4 1,2 2,3 4,4l6 6 -79 0 6 -6c1,-1 2,-2 3,-3zm52 -116l9 4c3,2 6,3 10,4 3,1 7,3 10,3 3,1 6,2 9,2 3,1 6,1 9,1 4,0 7,0 11,0 3,-1 6,-1 8,-2 4,0 7,-1 10,-2 3,-2 6,-3 10,-5 3,-2 5,-4 8,-6 2,-3 4,-5 6,-7 2,-3 4,-6 6,-9 2,-4 3,-7 4,-11 1,-3 2,-7 2,-10 1,-4 1,-8 1,-12 0,-3 0,-7 0,-11 0,-4 -1,-7 -1,-11 -1,-4 -2,-8 -4,-11 -1,-4 -2,-7 -4,-11 -2,-3 -4,-6 -7,-9 -2,-3 -5,-6 -9,-9 -3,-2 -6,-4 -10,-6 -3,-2 -7,-3 -11,-4 -3,-1 -7,-1 -11,-2 -3,0 -6,0 -9,1 -4,0 -7,1 -11,2 -3,1 -6,2 -9,4 -3,1 -6,3 -8,4 -3,2 -5,4 -7,7 -2,2 -4,5 -6,8 -1,2 -2,4 -3,7 -1,3 -1,7 -2,10 0,4 -1,8 -1,12 0,6 0,12 0,17l0 52zm-512 -53c0,-4 0,-9 1,-13 0,-5 1,-9 2,-13 2,-5 3,-10 5,-15 2,-5 5,-9 7,-13 3,-5 6,-9 9,-13 3,-3 6,-6 9,-9 4,-3 8,-7 13,-10 4,-3 9,-6 15,-8 5,-3 11,-5 16,-7 4,-1 8,-2 12,-3 6,-1 12,-2 18,-2 3,0 5,0 7,0 7,0 13,0 20,1 6,2 13,3 19,5 7,3 13,6 19,10 5,3 10,7 14,11 5,4 8,8 12,13 3,3 6,8 9,12 2,4 4,8 6,12 2,5 3,9 4,13 1,5 2,9 3,14 0,4 0,9 0,14 0,6 -1,12 -2,18 -1,6 -3,12 -5,17 -2,5 -4,10 -7,15 -3,5 -6,9 -9,13 -4,4 -8,8 -12,12 -4,3 -8,6 -12,9 -4,3 -8,5 -12,7 -5,2 -10,4 -15,6 -5,1 -9,2 -14,3 -6,2 -12,2 -19,3 -4,0 -7,0 -11,0 -5,0 -10,-1 -15,-2 -5,0 -10,-1 -15,-3 -4,-1 -9,-3 -14,-5l-1 -1c-4,-2 -9,-5 -13,-8 -4,-3 -8,-6 -11,-9 -4,-3 -7,-7 -11,-11 -3,-5 -6,-9 -9,-14 -2,-4 -4,-8 -6,-13 -1,-3 -3,-7 -4,-10 -1,-4 -2,-8 -2,-12 -1,-5 -1,-9 -1,-14zm-202 -74c-1,4 7,5 10,8 3,2 5,5 7,7 1,2 3,5 4,7 1,2 2,3 2,5 1,2 2,4 2,6 1,2 1,4 1,7 1,2 1,4 1,6 0,2 0,5 -1,8 0,2 -1,4 -1,7 -1,2 -1,3 -2,5 -1,3 -2,5 -4,7 -1,2 -2,4 -3,5 -1,2 -3,5 -5,7 -3,2 -5,4 -8,6 -2,2 -4,4 -7,5 -3,2 -6,3 -8,5 -3,1 -5,2 -7,2 -2,1 -4,2 -7,3 -2,1 -4,1 -7,2 -3,1 -7,2 -11,3 -5,1 -9,1 -13,2 -4,0 -7,1 -11,2 -3,0 -6,1 -8,3 -1,0 -1,0 -2,1 -1,1 -1,3 -1,5 1,2 3,2 5,2 2,1 4,1 5,1 2,0 4,0 6,0 2,0 4,-1 6,-1 3,0 7,0 10,0 3,0 6,0 9,0 3,0 7,0 10,0 4,0 7,0 10,1 3,0 6,1 10,1 3,1 5,1 8,2 3,1 6,1 9,2 2,1 5,2 8,3 2,1 5,2 7,4 2,1 5,2 7,4 2,1 4,2 6,4 2,1 4,3 6,5 1,1 3,3 4,5 2,1 3,3 4,5 1,2 2,4 3,6 1,2 2,4 2,6 1,2 1,4 1,6 1,2 1,5 1,7 0,3 0,5 -1,8 0,3 -1,5 -1,8 -1,3 -2,5 -3,8 -1,2 -3,5 -4,7 -2,3 -4,6 -6,8 -3,4 -6,7 -10,10 -3,2 -6,4 -10,7 -3,2 -7,4 -11,6 -4,2 -8,3 -12,5 -3,1 -7,2 -10,3 -4,1 -7,2 -11,3 -4,1 -8,1 -12,2 -4,0 -8,1 -12,1 -4,0 -8,1 -13,1 -4,0 -8,0 -12,0 -4,0 -8,0 -12,-1 -4,0 -9,-1 -13,-1 -4,-1 -7,-1 -11,-2 -3,0 -6,-1 -10,-2 -3,-1 -6,-2 -9,-3 -3,-1 -6,-2 -9,-3 -4,-2 -7,-3 -10,-5 -4,-2 -7,-4 -10,-6 -2,-2 -5,-4 -7,-6 -3,-2 -5,-4 -7,-6 -1,-2 -3,-5 -4,-7 -2,-3 -3,-5 -3,-8 -1,-3 -2,-6 -2,-9 0,-3 0,-6 0,-8 1,-2 1,-4 2,-6 1,-3 2,-5 4,-7 1,-2 3,-3 5,-5 1,-2 3,-3 5,-4 2,-2 4,-3 7,-4 2,-1 5,-2 8,-2 2,-1 4,-1 6,-1 2,0 4,0 6,0 2,0 4,0 6,0 2,1 5,1 7,2 2,0 4,1 7,2l12 4 -13 2c-2,0 -4,1 -6,2 -2,1 -3,2 -4,4 -1,1 -2,2 -2,4 -1,1 -1,3 -2,4 0,3 0,6 1,9 1,4 2,6 4,9 3,4 7,8 10,10 4,3 8,5 12,7 4,1 8,3 12,4 4,1 8,2 13,3 5,1 10,1 16,1 5,1 11,0 16,0 6,-1 11,-2 17,-3 4,-2 9,-3 13,-5 4,-3 9,-5 12,-8 4,-3 7,-6 9,-9 3,-4 5,-8 6,-13 0,-3 1,-7 0,-11 -1,-4 -2,-7 -4,-10 -1,-3 -3,-5 -6,-7 -2,-2 -5,-4 -8,-5 -4,-2 -8,-4 -12,-5 -3,-1 -7,-1 -11,-2 -4,-1 -8,-1 -12,-1 -5,-1 -10,-1 -15,-1 -5,0 -10,0 -15,1 -4,0 -8,0 -13,0 -4,0 -9,0 -14,0 -5,0 -9,-1 -14,-2 -2,-1 -5,-2 -7,-4l-1 0c-3,-2 -5,-4 -7,-7 -2,-4 -3,-7 -3,-11 0,-4 1,-8 3,-11 2,-3 4,-6 6,-8 2,-2 5,-4 8,-5 2,-1 9,-1 8,-3 -3,-4 -9,-4 -14,-6 -4,-2 -8,-4 -11,-7 -4,-3 -7,-6 -9,-9 -3,-3 -6,-7 -8,-11 -13,-21 -12,-51 4,-71 3,-4 6,-7 9,-10 3,-3 7,-5 10,-7 4,-3 7,-4 11,-6 5,-2 9,-3 13,-5 6,-1 11,-2 17,-3 5,-1 10,-2 15,-2 5,0 10,0 15,0 6,0 13,0 19,0 5,1 10,1 15,1 6,0 12,1 18,1 6,0 12,0 19,0 5,-1 10,-1 15,-2 7,0 14,-1 21,-2l6 -1 -15 36c-4,1 -8,1 -12,1 -3,0 -6,0 -10,0 -3,0 -6,0 -10,-1 -4,0 -11,-5 -13,-1zm-21 35c-1,-5 -2,-9 -5,-14 -2,-3 -4,-5 -6,-8 -2,-2 -5,-4 -7,-6 -3,-2 -7,-4 -10,-5 -5,-2 -9,-2 -13,-3 -4,0 -8,0 -11,0 -4,0 -8,1 -12,2 -3,1 -7,3 -10,5 -2,1 -5,3 -7,6 -2,2 -4,5 -5,8 -2,3 -2,6 -3,9 -1,4 -1,8 0,11 0,4 1,8 2,11 1,3 2,6 4,9 2,3 4,5 6,7 2,3 4,5 7,7 3,1 5,3 8,4 3,1 6,2 9,3 3,1 6,1 10,1 3,0 7,0 10,0 3,-1 7,-2 10,-3 3,-1 5,-3 8,-4 2,-1 4,-3 6,-5 2,-2 3,-5 5,-7 1,-2 2,-5 3,-8 1,-3 2,-6 2,-10 0,-3 0,-6 -1,-10zm201 -24c-5,-2 -9,-2 -14,-2 -4,1 -8,1 -11,3 -3,1 -6,2 -9,5 -4,3 -7,7 -9,11 -2,4 -4,7 -5,11 0,3 -1,6 -1,9 -1,4 -1,8 -1,13l0 70c0,3 0,6 1,9 0,2 0,4 1,6 0,2 1,5 2,7 1,2 2,4 4,6 1,2 3,3 4,5l7 5 -81 0 7 -5c1,-1 3,-3 4,-4 1,-2 2,-3 3,-5 1,-3 2,-5 3,-8 1,-3 1,-6 2,-9 0,-3 0,-5 0,-7l0 -118c0,-3 0,-6 -1,-9 0,-3 0,-6 -1,-9 -1,-3 -3,-7 -5,-9 -2,-3 -3,-5 -5,-6l-6 -6 12 0c5,0 10,0 16,0 4,-1 9,-1 13,-2 4,0 9,-1 13,-2l4 0 3 24c2,-3 5,-6 7,-9 4,-3 7,-6 11,-8 6,-3 12,-5 18,-6 3,-1 7,-1 11,-1 3,1 7,1 10,2 2,0 4,0 6,1l0 45 -5 -3c-3,-2 -6,-4 -8,-4zm70 55c0,4 0,7 1,11 0,3 0,6 1,9 1,4 2,8 3,11 1,5 3,10 6,15 3,4 6,8 9,12 4,4 9,8 14,11 4,2 8,4 12,5 4,1 8,2 13,2 4,1 9,0 13,0 5,-1 10,-2 15,-4 5,-2 9,-4 14,-8 4,-3 8,-8 11,-12 4,-5 6,-11 8,-17 2,-5 3,-11 4,-17 0,-6 0,-12 0,-19 -1,-3 -1,-7 -2,-11 -1,-3 -2,-6 -3,-10 -2,-5 -5,-10 -8,-15 -3,-4 -6,-8 -10,-12 -3,-3 -6,-5 -10,-7 -4,-3 -9,-5 -14,-6 -6,-2 -11,-2 -17,-2 -3,0 -7,0 -11,1 -5,0 -10,2 -15,4 -4,2 -8,5 -11,8 -4,3 -7,7 -11,11 -2,4 -4,8 -6,12 -2,4 -3,9 -4,13 -1,5 -2,10 -2,15zm-778 8c0,-4 0,-9 1,-13 0,-5 1,-9 2,-13 1,-5 3,-10 5,-15 2,-5 4,-9 7,-13 3,-5 6,-9 9,-13 3,-3 6,-6 9,-9 4,-3 8,-7 12,-10 5,-3 10,-6 16,-8 5,-3 11,-5 16,-7 4,-1 8,-2 12,-3 6,-1 12,-2 18,-2 3,0 5,0 7,0 7,0 13,0 20,1 6,2 12,3 19,5 6,3 13,6 19,10 5,3 10,7 14,11 5,4 8,8 12,13 3,3 6,8 9,12 2,4 4,8 6,12 1,5 3,9 4,13 1,5 2,9 3,14 0,4 0,9 0,14 0,6 -1,12 -2,18 -1,6 -3,12 -5,17 -2,5 -4,10 -7,15 -3,5 -6,9 -9,13 -4,4 -8,8 -12,12 -4,3 -8,6 -12,9 -4,3 -8,5 -12,7 -5,2 -10,4 -15,6 -5,1 -9,2 -14,3 -6,2 -12,2 -19,3 -4,0 -7,0 -11,0 -5,0 -10,-1 -16,-2 -4,0 -9,-1 -14,-3 -4,-1 -9,-3 -14,-5l-1 -1c-4,-2 -9,-5 -13,-8 -4,-3 -8,-6 -11,-9 -4,-3 -7,-7 -11,-11 -3,-5 -6,-9 -9,-14 -2,-4 -4,-8 -6,-13 -1,-3 -3,-7 -4,-10 -1,-4 -2,-8 -2,-12 -1,-5 -1,-9 -1,-14zm-422 88c-4,-2 -8,-4 -11,-8 -2,-2 -4,-5 -5,-8 -2,-5 -3,-9 -4,-14 -1,-4 -1,-7 -1,-11l0 -53c-3,1 -7,2 -10,3 -6,2 -11,3 -17,5 -6,2 -11,4 -17,6 -5,2 -9,4 -14,7 -4,2 -8,4 -11,8 -4,2 -6,5 -7,9 -1,3 -1,6 -1,9 1,3 2,6 4,9 2,3 4,5 6,7 4,3 7,5 12,6 5,2 10,3 15,3 4,0 8,0 12,0 6,-1 11,-2 17,-3l8 -2 -27 36c-4,1 -8,2 -12,2 -4,1 -8,1 -12,1 -6,0 -12,-1 -18,-2 -7,-1 -15,-4 -21,-8 -5,-3 -10,-6 -14,-10 -3,-4 -7,-8 -9,-12 -3,-4 -5,-9 -6,-13 -1,-6 -2,-12 -2,-18 0,-3 0,-7 1,-10 1,-5 2,-9 5,-14 2,-5 6,-10 10,-14 4,-3 9,-6 14,-8 5,-2 9,-4 14,-5 5,-2 10,-3 15,-4 5,-2 11,-3 16,-4 5,-1 10,-2 15,-3 5,-2 11,-3 16,-5 4,-1 8,-3 11,-5 3,-2 5,-4 6,-7 2,-5 1,-10 -2,-14 -1,-4 -4,-6 -8,-9 -4,-2 -8,-3 -12,-4 -5,-2 -10,-2 -16,-2 -5,-1 -10,0 -15,1 -7,1 -13,3 -18,5 -6,2 -12,5 -18,8l-10 4 32 -50c4,-1 8,-1 12,-1 4,-1 9,-1 14,-2 6,0 11,0 17,0 6,0 13,1 19,3 7,1 13,4 19,7 4,2 8,5 12,9 4,3 7,7 9,12 3,5 5,10 6,16 0,3 1,5 1,7 1,6 1,12 1,18 0,2 0,4 0,7l0 45c0,4 0,9 1,13 0,4 0,7 1,11 0,4 1,8 3,12 2,3 7,5 11,6 5,2 10,3 15,3l6 1 -20 31c-5,0 -9,0 -14,-1 -4,0 -9,-1 -13,-2 -4,-1 -8,-2 -11,-4zm220 -162c-1,4 7,5 10,8 3,2 5,5 7,7 1,2 3,5 4,7 1,2 2,3 2,5 1,2 2,4 2,6 1,2 1,4 1,7 1,2 1,4 1,6 0,2 0,5 -1,8 0,2 -1,4 -1,7 -1,2 -1,3 -2,5 -1,3 -2,5 -4,7 -1,2 -2,4 -3,5 -1,2 -3,5 -5,7 -3,2 -5,4 -8,6 -2,2 -4,4 -7,5 -3,2 -6,3 -8,5 -3,1 -5,2 -7,2 -2,1 -4,2 -7,3 -2,1 -4,1 -7,2 -3,1 -7,2 -11,3 -5,1 -9,1 -13,2 -4,0 -7,1 -11,2 -3,0 -6,1 -8,3 -1,0 -1,0 -2,1 -1,1 -1,3 -1,5 1,2 3,2 5,2 2,1 4,1 5,1 2,0 4,0 6,0 2,0 4,-1 6,-1 3,0 7,0 10,0 3,0 6,0 9,0 3,0 7,0 10,0 4,0 7,0 10,1 3,0 6,1 10,1 2,1 5,1 8,2 3,1 6,1 9,2 2,1 5,2 8,3 2,1 5,2 7,4 2,1 5,2 7,4 2,1 4,2 6,4 2,1 4,3 5,5 2,1 4,3 5,5 2,1 3,3 4,5 1,2 2,4 3,6 1,2 1,4 2,6 1,2 1,4 1,6 1,2 1,5 1,7 0,3 0,5 -1,8 0,3 -1,5 -1,8 -1,3 -2,5 -3,8 -1,2 -3,5 -4,7 -2,3 -4,6 -6,8 -3,4 -6,7 -10,10 -3,2 -6,4 -10,7 -3,2 -7,4 -11,6 -4,2 -8,3 -12,5 -3,1 -7,2 -10,3 -4,1 -7,2 -11,3 -4,1 -8,1 -12,2 -4,0 -8,1 -12,1 -4,0 -8,1 -13,1 -4,0 -8,0 -12,0 -4,0 -8,0 -12,-1 -4,0 -9,-1 -13,-1 -4,-1 -7,-1 -11,-2 -3,0 -7,-1 -10,-2 -3,-1 -6,-2 -9,-3 -3,-1 -6,-2 -9,-3 -4,-2 -7,-3 -11,-5 -3,-2 -6,-4 -9,-6 -2,-2 -5,-4 -7,-6 -3,-2 -5,-4 -7,-6 -2,-2 -3,-5 -4,-7 -2,-3 -3,-5 -4,-8 0,-3 -1,-6 -1,-9 0,-3 0,-6 0,-8 1,-2 1,-4 2,-6 1,-3 2,-5 4,-7 1,-2 3,-3 5,-5 1,-2 3,-3 5,-4 2,-2 4,-3 7,-4 2,-1 5,-2 8,-2 2,-1 4,-1 6,-1 2,0 4,0 6,0 2,0 4,0 6,0 2,1 5,1 7,2 2,0 4,1 7,2l12 4 -13 2c-2,0 -4,1 -6,2 -2,1 -3,2 -4,4 -1,1 -2,2 -2,4 -1,1 -1,3 -2,4 0,3 0,6 1,9 1,4 2,6 4,9 3,4 6,8 10,10 4,3 8,5 12,7 4,1 8,3 12,4 4,1 8,2 13,3 5,1 10,1 16,1 5,1 11,0 16,0 6,-1 11,-2 17,-3 4,-2 9,-3 13,-5 4,-3 8,-5 12,-8 4,-3 7,-6 9,-9 3,-4 5,-8 6,-13 0,-3 1,-7 0,-11 -1,-4 -2,-7 -4,-10 -1,-3 -3,-5 -6,-7 -2,-2 -5,-4 -8,-5 -4,-2 -8,-4 -12,-5 -3,-1 -7,-1 -11,-2 -4,-1 -8,-1 -12,-1 -5,-1 -10,-1 -15,-1 -5,0 -10,0 -15,1 -4,0 -8,0 -13,0 -4,0 -9,0 -14,0 -5,0 -9,-1 -14,-2 -2,-1 -5,-2 -7,-4l-1 0c-3,-2 -5,-4 -7,-7 -2,-4 -3,-7 -3,-11 0,-4 1,-8 3,-11 1,-3 4,-6 6,-8 2,-2 5,-4 8,-5 2,-1 9,-1 7,-3 -2,-4 -8,-4 -13,-6 -4,-2 -8,-4 -11,-7 -4,-3 -7,-6 -10,-9 -3,-3 -5,-7 -7,-11 -2,-3 -4,-6 -5,-10 -2,-4 -3,-8 -3,-13 -1,-3 -1,-7 -1,-11 0,-4 0,-8 1,-12 1,-4 2,-8 4,-12 2,-5 5,-9 8,-13 3,-4 6,-7 9,-10 3,-3 7,-5 10,-7 4,-3 7,-4 11,-6 5,-2 9,-3 13,-5 5,-1 11,-2 17,-3 5,-1 10,-2 15,-2 5,0 10,0 15,0 6,0 13,0 19,0 5,1 10,1 15,1 6,0 12,1 18,1 6,0 12,0 18,0 6,-1 11,-1 16,-2 7,0 14,-1 21,-2l6 -1 -15 36c-4,1 -8,1 -12,1 -3,0 -6,0 -10,0 -3,0 -6,0 -10,-1 -4,0 -11,-5 -13,-1zm-21 35c-1,-5 -2,-9 -5,-14 -2,-3 -4,-5 -6,-8 -2,-2 -5,-4 -7,-6 -3,-2 -7,-4 -10,-5 -5,-2 -9,-2 -13,-3 -4,0 -8,0 -11,0 -4,0 -8,1 -12,2 -4,1 -7,3 -10,5 -2,1 -5,3 -7,6 -2,2 -4,5 -5,8 -2,3 -3,6 -3,9 -1,4 -1,8 0,11 0,4 1,8 2,11 1,3 2,6 4,9 2,3 4,5 6,7 2,3 4,5 7,7 3,1 5,3 8,4 3,1 6,2 9,3 3,1 6,1 10,1 3,0 7,0 10,0 3,-1 7,-2 10,-3 3,-1 5,-3 8,-4 2,-1 4,-3 6,-5 2,-2 3,-5 5,-7 1,-2 2,-5 3,-8 1,-3 2,-6 2,-10 0,-3 0,-6 -1,-10zm201 -24c-5,-2 -9,-2 -14,-2 -4,1 -8,1 -11,3 -3,1 -6,2 -9,5 -4,3 -7,7 -9,11 -2,4 -4,7 -5,11 0,3 -1,6 -1,9 -1,4 -1,8 -1,13l0 70c0,3 0,6 1,9 0,2 0,4 1,6 0,2 1,5 2,7 1,2 2,4 4,6 1,2 3,3 4,5l7 5 -81 0 7 -5c1,-1 3,-3 4,-4 1,-2 2,-3 3,-5 1,-3 2,-5 3,-8 1,-3 1,-6 2,-9 0,-3 0,-5 0,-7l0 -118c0,-3 0,-6 -1,-9 0,-3 -1,-6 -2,-9 0,-3 -2,-7 -4,-9 -2,-3 -3,-5 -5,-6l-6 -6 11 0c6,0 11,0 17,0 4,-1 9,-1 13,-2 4,0 9,-1 13,-2l4 0 3 24c2,-3 5,-6 7,-9 4,-3 7,-6 11,-8 6,-3 12,-5 18,-6 3,-1 7,-1 11,-1 3,1 7,1 10,2 2,0 4,0 6,1l0 45 -5 -3c-3,-2 -6,-4 -8,-4zm70 55c0,4 0,7 1,11 0,3 0,6 1,9 1,4 2,8 3,11 1,5 3,10 6,15 3,4 6,8 9,12 4,4 9,8 14,11 4,2 8,4 12,5 4,1 8,2 13,2 4,1 9,0 13,0 5,-1 10,-2 15,-4 5,-2 9,-4 14,-8 4,-3 8,-8 11,-12 4,-5 6,-11 8,-17 2,-5 3,-11 4,-17 0,-6 0,-12 0,-19 -1,-3 -1,-7 -2,-11 -1,-3 -2,-6 -3,-10 -2,-5 -5,-10 -8,-15 -3,-4 -6,-8 -10,-12 -3,-3 -6,-5 -10,-7 -4,-3 -9,-5 -14,-6 -6,-2 -11,-2 -17,-2 -3,0 -7,0 -11,1 -5,0 -10,2 -15,4 -4,2 -8,5 -11,8 -4,3 -8,7 -11,11 -2,4 -5,8 -6,12 -2,4 -4,9 -4,13 -1,5 -2,10 -2,15zm-1489 72c0,2 0,4 1,6 0,2 1,5 2,7 1,2 2,4 3,6 2,3 4,5 6,7l6 5 -80 0c2,-2 4,-4 6,-5 2,-2 4,-4 6,-7 1,-2 2,-4 3,-6 1,-2 2,-5 2,-8 1,-2 1,-4 1,-7 0,-1 0,-3 1,-5l0 -203c0,-2 -1,-5 -1,-7 0,-3 0,-5 -1,-7 0,-2 -1,-4 -2,-6 0,-2 -1,-3 -2,-5 -1,-1 -2,-3 -4,-4 -1,-1 -2,-2 -3,-3l-6 -6 12 0c3,0 6,0 9,0 3,0 7,-1 10,-1 5,-1 9,-1 14,-2 4,0 8,-1 12,-1l4 -1 0 246c0,2 0,4 1,7zm94 -7c0,1 0,3 0,4 0,2 0,4 1,6 0,2 0,4 1,6 1,2 1,4 2,6 1,2 2,4 4,6 1,2 3,3 4,5l7 5 -80 0 6 -5c1,-2 3,-3 4,-4 1,-2 2,-4 3,-5 1,-2 2,-4 3,-6 0,-2 1,-4 1,-6 1,-2 1,-4 1,-7 0,-1 0,-3 0,-5l0 -118c0,-2 0,-4 0,-6 0,-1 0,-3 0,-4 -1,-2 -1,-4 -1,-6 -1,-2 -1,-3 -2,-5 -1,-2 -1,-3 -2,-5 -1,-1 -2,-3 -3,-4 -2,-1 -3,-3 -4,-4l-6 -5 8 0c3,0 6,0 10,-1 3,0 7,0 10,0 4,0 7,-1 11,-1 3,0 7,-1 10,-1 3,0 5,-1 8,-1l4 -1 0 162zm-50 -205c0,-3 0,-6 1,-10 1,-2 3,-4 4,-6 2,-2 4,-4 6,-6 2,-1 4,-2 7,-3 2,-1 5,-2 8,-2 2,0 5,0 7,1 3,1 6,2 8,3 3,2 5,4 7,7 2,2 3,4 4,7 1,3 2,6 2,10 0,2 -1,5 -1,7 -1,3 -2,5 -4,8 -2,2 -3,4 -6,5 -2,2 -4,4 -7,4 -3,2 -6,2 -9,2 -4,0 -7,-1 -11,-2 -2,-1 -5,-3 -7,-5 -2,-1 -3,-3 -5,-4 -1,-3 -2,-5 -3,-7 -1,-3 -1,-6 -1,-9zm146 211c0,2 0,4 1,6 0,2 0,4 1,6 1,2 2,4 2,5 1,2 3,4 4,5 1,2 2,3 4,5l6 5 -80 0 6 -5c1,-1 2,-2 3,-3 2,-2 3,-4 4,-6 1,-2 2,-4 3,-6 1,-2 1,-4 1,-6 1,-2 1,-4 1,-7 0,-1 0,-3 0,-5l0 -118c0,-3 0,-5 0,-7 0,-3 0,-5 -1,-8 -1,-2 -1,-5 -3,-8 -1,-2 -2,-4 -3,-6 -2,-1 -3,-3 -5,-5l-6 -5 12 0c3,0 6,0 9,0 3,-1 7,-1 11,-1 3,-1 6,-1 9,-1 3,-1 6,-1 9,-2 3,0 6,0 9,-1l1 27 0 0 1 -1c3,-2 5,-4 7,-6 3,-2 5,-4 8,-6 3,-2 5,-3 9,-5 3,-2 6,-3 9,-4 4,-2 9,-3 13,-3 3,-1 7,-1 11,-1 4,-1 8,0 12,0 4,0 7,1 11,2 4,1 7,2 10,3 4,1 7,3 10,5 4,2 7,4 10,7 2,2 5,4 7,6 2,4 5,7 7,10 2,3 3,6 5,10 1,3 2,6 3,10 0,3 1,6 1,9 1,3 1,6 1,10l0 89 0 0 0 1 0 1 0 1 0 0 0 1 0 1 0 0 0 1 0 1 0 0 0 1 0 1 0 0 0 1 1 1 0 0 0 1 0 1 0 0 0 1 0 0 0 1 0 0 1 1 0 0 0 1 0 0 0 1 0 1 1 0 0 0 0 1 0 0 0 1 1 0 0 1 0 0 0 1 0 0 1 1 0 0 0 1 0 0 1 0 0 1 0 0 1 1 0 0 0 1 1 0 0 0 0 1 1 0 0 1 0 0 1 0 0 1 0 0 1 0 0 1 1 0 0 1 6 5 -81 0 7 -5 0 -1 1 0 0 -1 0 0 1 0 0 -1 0 0 1 0 0 -1 0 0 1 -1 0 0 0 -1 1 0 0 0 0 -1 1 0 0 -1 0 0 1 0 0 -1 0 0 0 -1 1 0 0 -1 0 0 0 -1 0 0 1 -1 0 0 0 -1 0 0 0 -1 1 0 0 -1 0 0 0 -1 0 0 0 -1 1 0 0 -1 0 0 0 -1 0 -1 0 0 0 -1 0 0 0 -1 1 -1 0 0 0 -1 0 -1 0 0 0 -1 0 -1 0 0 0 -1 0 -1 0 0 0 -1 0 -1 0 -1 0 0 0 -68c0,-3 0,-6 0,-9 0,-3 -1,-7 -1,-10 -1,-3 -1,-6 -2,-8 -1,-3 -1,-5 -3,-8 -1,-2 -2,-4 -3,-7 -2,-2 -4,-4 -7,-6 -2,-2 -4,-3 -7,-5 -3,-1 -6,-2 -9,-2 -3,-1 -6,-1 -9,-1 -3,0 -6,0 -9,0 -3,0 -7,1 -10,1 -3,1 -6,2 -8,3 -3,1 -6,3 -8,5 -2,2 -4,4 -5,6 -2,2 -3,4 -4,7 -1,3 -2,5 -2,8 -1,3 -1,6 -2,9 0,2 0,5 0,7 0,2 0,5 0,7l0 71c0,2 0,4 0,6zm309 25c-4,-2 -7,-5 -10,-8 -3,-3 -4,-5 -6,-9 -2,-4 -3,-8 -4,-13 0,-4 -1,-8 -1,-12l0 -52c-3,1 -6,2 -10,3 -6,1 -11,3 -16,5 -6,2 -12,4 -18,6 -4,2 -9,4 -13,6 -5,3 -8,5 -12,8 -3,3 -6,6 -7,10 -1,3 -1,5 0,8 0,4 1,7 3,9 2,3 4,5 7,7 3,3 7,5 11,7 5,1 10,2 15,2 4,1 8,1 12,0 6,0 11,-1 17,-3l9 -2 -28 37c-4,1 -8,1 -12,2 -4,0 -7,0 -11,0 -6,0 -12,0 -18,-1 -8,-2 -15,-4 -22,-9 -5,-2 -9,-6 -13,-9 -4,-4 -7,-8 -10,-13 -2,-4 -4,-8 -5,-13 -2,-5 -3,-11 -3,-17 0,-4 1,-7 1,-11 1,-4 3,-9 5,-13 3,-5 6,-10 11,-14 4,-3 8,-6 13,-8 5,-2 10,-4 14,-6 5,-1 10,-3 15,-4 6,-1 11,-2 17,-4 4,-1 9,-2 14,-3 5,-1 11,-3 16,-5 4,-1 8,-2 12,-5 2,-2 4,-4 5,-7 2,-4 1,-10 -1,-14 -2,-3 -5,-6 -8,-8 -4,-2 -8,-4 -12,-5 -6,-1 -11,-2 -16,-2 -6,0 -11,0 -16,1 -6,2 -12,3 -18,6 -6,2 -12,4 -18,7l-10 5 32 -50c4,-1 8,-2 12,-2 5,0 10,-1 15,-1 5,-1 11,-1 16,0 7,0 13,1 20,2 6,2 12,4 18,7 5,3 9,6 12,9 4,4 7,8 9,12 3,5 5,11 6,17 1,2 1,5 1,7 1,6 2,12 2,17 0,3 0,5 0,7l0 46c0,4 0,8 0,12 0,4 1,8 1,12 1,4 2,8 4,11 2,4 6,6 10,7 5,2 10,2 15,3l7 0 -21 31c-4,0 -9,0 -13,0 -5,-1 -10,-1 -14,-2 -4,-1 -8,-3 -11,-4z"/>
<!--   <path class="fil4" d="M12041 1865c0,-42 -32,-73 -78,-73l-403 0c105,-145 277,-257 416,-389 97,-92 169,-194 169,-342 0,-157 -109,-280 -308,-280 -127,0 -362,55 -362,161 0,42 36,71 77,71 37,0 72,-29 111,-46 44,-17 91,-27 149,-27 103,0 154,66 154,152 0,154 -170,261 -291,363 -123,102 -245,206 -324,342 -13,21 -23,49 -23,81 0,44 31,76 79,76l534 0c51,0 100,-40 100,-89zm877 -337c0,-188 -122,-301 -308,-301 -47,0 -92,6 -135,26 18,-94 34,-188 51,-281l327 0c50,0 110,-24 110,-89 0,-53 -48,-73 -87,-73l-391 0c-49,0 -102,34 -112,91l-81 465c-8,54 25,91 76,91 43,0 90,-39 109,-49 32,-16 65,-26 107,-26 89,0 156,54 156,169 0,118 -59,261 -248,261 -111,0 -156,-62 -210,-62 -53,0 -95,42 -95,89 0,111 251,128 321,128 279,0 410,-241 410,-439l0 0z"/> -->
 </g>
</svg>
